<mxfile host="drawio-plugin" modified="2023-11-03T02:56:33.257Z" agent="5.0 (Windows NT 10.0; Win64; x64) AppleWebKit/537.36 (KHTML, like Gecko) Chrome/111.0.0.0 Safari/537.36" etag="vOE5KxfsotNLyIvMZvL5" version="20.5.3" type="embed"><diagram id="23iRSUPoRavnBvh4doch" name="Page-1"><mxGraphModel dx="822" dy="503" grid="1" gridSize="10" guides="1" tooltips="1" connect="1" arrows="1" fold="1" page="1" pageScale="1" pageWidth="827" pageHeight="1169" math="0" shadow="0"><root><mxCell id="0"/><mxCell id="1" parent="0"/><mxCell id="2" value="8" style="whiteSpace=wrap;html=1;aspect=fixed;fillColor=#6a00ff;fontColor=#ffffff;strokeColor=#3700CC;" parent="1" vertex="1"><mxGeometry x="418" y="220" width="40" height="40" as="geometry"/></mxCell><mxCell id="3" value="9" style="whiteSpace=wrap;html=1;aspect=fixed;fillColor=#6a00ff;fontColor=#ffffff;strokeColor=#3700CC;" parent="1" vertex="1"><mxGeometry x="468" y="220" width="40" height="40" as="geometry"/></mxCell><mxCell id="4" value="10" style="whiteSpace=wrap;html=1;aspect=fixed;fillColor=#6a00ff;fontColor=#ffffff;strokeColor=#3700CC;" parent="1" vertex="1"><mxGeometry x="518" y="220" width="40" height="40" as="geometry"/></mxCell><mxCell id="5" value="11" style="whiteSpace=wrap;html=1;aspect=fixed;fillColor=#6a00ff;fontColor=#ffffff;strokeColor=#3700CC;" parent="1" vertex="1"><mxGeometry x="568" y="220" width="40" height="40" as="geometry"/></mxCell><mxCell id="6" value="12" style="whiteSpace=wrap;html=1;aspect=fixed;fillColor=#008a00;fontColor=#ffffff;strokeColor=#005700;" parent="1" vertex="1"><mxGeometry x="618" y="220" width="40" height="40" as="geometry"/></mxCell><mxCell id="7" value="13" style="whiteSpace=wrap;html=1;aspect=fixed;fillColor=#008a00;fontColor=#ffffff;strokeColor=#005700;" parent="1" vertex="1"><mxGeometry x="668" y="220" width="40" height="40" as="geometry"/></mxCell><mxCell id="8" value="14" style="whiteSpace=wrap;html=1;aspect=fixed;fillColor=#008a00;fontColor=#ffffff;strokeColor=#005700;" parent="1" vertex="1"><mxGeometry x="718" y="220" width="40" height="40" as="geometry"/></mxCell><mxCell id="16" value="1" style="whiteSpace=wrap;html=1;aspect=fixed;fillColor=#008a00;fontColor=#ffffff;strokeColor=#005700;" parent="1" vertex="1"><mxGeometry x="68" y="220" width="40" height="40" as="geometry"/></mxCell><mxCell id="17" value="2" style="whiteSpace=wrap;html=1;aspect=fixed;fillColor=#008a00;fontColor=#ffffff;strokeColor=#005700;" parent="1" vertex="1"><mxGeometry x="118" y="220" width="40" height="40" as="geometry"/></mxCell><mxCell id="18" value="3" style="whiteSpace=wrap;html=1;aspect=fixed;fillColor=#008a00;fontColor=#ffffff;strokeColor=#005700;" parent="1" vertex="1"><mxGeometry x="168" y="220" width="40" height="40" as="geometry"/></mxCell><mxCell id="19" value="4" style="whiteSpace=wrap;html=1;aspect=fixed;fillColor=#6a00ff;fontColor=#ffffff;strokeColor=#3700CC;" parent="1" vertex="1"><mxGeometry x="218" y="220" width="40" height="40" as="geometry"/></mxCell><mxCell id="20" value="5" style="whiteSpace=wrap;html=1;aspect=fixed;fillColor=#6a00ff;fontColor=#ffffff;strokeColor=#3700CC;" parent="1" vertex="1"><mxGeometry x="268" y="220" width="40" height="40" as="geometry"/></mxCell><mxCell id="21" value="6" style="whiteSpace=wrap;html=1;aspect=fixed;fillColor=#6a00ff;fontColor=#ffffff;strokeColor=#3700CC;" parent="1" vertex="1"><mxGeometry x="318" y="220" width="40" height="40" as="geometry"/></mxCell><mxCell id="22" value="7" style="whiteSpace=wrap;html=1;aspect=fixed;fillColor=#6a00ff;fontColor=#ffffff;strokeColor=#3700CC;" parent="1" vertex="1"><mxGeometry x="368" y="220" width="40" height="40" as="geometry"/></mxCell><mxCell id="100" value="Экран" style="rounded=0;whiteSpace=wrap;html=1;" parent="1" vertex="1"><mxGeometry x="68" y="120" width="692" height="20" as="geometry"/></mxCell><mxCell id="101" value="1" style="text;html=1;strokeColor=none;fillColor=none;align=center;verticalAlign=middle;whiteSpace=wrap;rounded=0;" parent="1" vertex="1"><mxGeometry y="226" width="60" height="30" as="geometry"/></mxCell><mxCell id="102" value="2" style="text;html=1;strokeColor=none;fillColor=none;align=center;verticalAlign=middle;whiteSpace=wrap;rounded=0;" parent="1" vertex="1"><mxGeometry y="281" width="60" height="30" as="geometry"/></mxCell><mxCell id="103" value="3" style="text;html=1;strokeColor=none;fillColor=none;align=center;verticalAlign=middle;whiteSpace=wrap;rounded=0;" parent="1" vertex="1"><mxGeometry y="336" width="60" height="30" as="geometry"/></mxCell><mxCell id="104" value="4" style="text;html=1;strokeColor=none;fillColor=none;align=center;verticalAlign=middle;whiteSpace=wrap;rounded=0;" parent="1" vertex="1"><mxGeometry y="391" width="60" height="30" as="geometry"/></mxCell><mxCell id="105" value="5" style="text;html=1;strokeColor=none;fillColor=none;align=center;verticalAlign=middle;whiteSpace=wrap;rounded=0;" parent="1" vertex="1"><mxGeometry y="443.5" width="60" height="30" as="geometry"/></mxCell><mxCell id="106" value="6" style="text;html=1;strokeColor=none;fillColor=none;align=center;verticalAlign=middle;whiteSpace=wrap;rounded=0;" parent="1" vertex="1"><mxGeometry y="498.5" width="60" height="30" as="geometry"/></mxCell><mxCell id="107" value="8" style="whiteSpace=wrap;html=1;aspect=fixed;fillColor=#6a00ff;fontColor=#ffffff;strokeColor=#3700CC;" parent="1" vertex="1"><mxGeometry x="419" y="275" width="40" height="40" as="geometry"/></mxCell><mxCell id="108" value="9" style="whiteSpace=wrap;html=1;aspect=fixed;fillColor=#6a00ff;fontColor=#ffffff;strokeColor=#3700CC;" parent="1" vertex="1"><mxGeometry x="469" y="275" width="40" height="40" as="geometry"/></mxCell><mxCell id="109" value="10" style="whiteSpace=wrap;html=1;aspect=fixed;fillColor=#6a00ff;fontColor=#ffffff;strokeColor=#3700CC;" parent="1" vertex="1"><mxGeometry x="519" y="275" width="40" height="40" as="geometry"/></mxCell><mxCell id="110" value="11" style="whiteSpace=wrap;html=1;aspect=fixed;fillColor=#6a00ff;fontColor=#ffffff;strokeColor=#3700CC;" parent="1" vertex="1"><mxGeometry x="569" y="275" width="40" height="40" as="geometry"/></mxCell><mxCell id="111" value="12" style="whiteSpace=wrap;html=1;aspect=fixed;fillColor=#008a00;fontColor=#ffffff;strokeColor=#005700;" parent="1" vertex="1"><mxGeometry x="619" y="275" width="40" height="40" as="geometry"/></mxCell><mxCell id="112" value="13" style="whiteSpace=wrap;html=1;aspect=fixed;fillColor=#008a00;fontColor=#ffffff;strokeColor=#005700;" parent="1" vertex="1"><mxGeometry x="669" y="275" width="40" height="40" as="geometry"/></mxCell><mxCell id="113" value="14" style="whiteSpace=wrap;html=1;aspect=fixed;fillColor=#008a00;fontColor=#ffffff;strokeColor=#005700;" parent="1" vertex="1"><mxGeometry x="719" y="275" width="40" height="40" as="geometry"/></mxCell><mxCell id="114" value="1" style="whiteSpace=wrap;html=1;aspect=fixed;fillColor=#008a00;fontColor=#ffffff;strokeColor=#005700;" parent="1" vertex="1"><mxGeometry x="69" y="275" width="40" height="40" as="geometry"/></mxCell><mxCell id="115" value="2" style="whiteSpace=wrap;html=1;aspect=fixed;fillColor=#008a00;fontColor=#ffffff;strokeColor=#005700;" parent="1" vertex="1"><mxGeometry x="119" y="275" width="40" height="40" as="geometry"/></mxCell><mxCell id="116" value="3" style="whiteSpace=wrap;html=1;aspect=fixed;fillColor=#008a00;fontColor=#ffffff;strokeColor=#005700;" parent="1" vertex="1"><mxGeometry x="169" y="275" width="40" height="40" as="geometry"/></mxCell><mxCell id="117" value="4" style="whiteSpace=wrap;html=1;aspect=fixed;fillColor=#6a00ff;fontColor=#ffffff;strokeColor=#3700CC;" parent="1" vertex="1"><mxGeometry x="219" y="275" width="40" height="40" as="geometry"/></mxCell><mxCell id="118" value="5" style="whiteSpace=wrap;html=1;aspect=fixed;fillColor=#6a00ff;fontColor=#ffffff;strokeColor=#3700CC;" parent="1" vertex="1"><mxGeometry x="269" y="275" width="40" height="40" as="geometry"/></mxCell><mxCell id="119" value="6" style="whiteSpace=wrap;html=1;aspect=fixed;fillColor=#6a00ff;fontColor=#ffffff;strokeColor=#3700CC;" parent="1" vertex="1"><mxGeometry x="319" y="275" width="40" height="40" as="geometry"/></mxCell><mxCell id="120" value="7" style="whiteSpace=wrap;html=1;aspect=fixed;fillColor=#6a00ff;fontColor=#ffffff;strokeColor=#3700CC;" parent="1" vertex="1"><mxGeometry x="369" y="275" width="40" height="40" as="geometry"/></mxCell><mxCell id="121" value="8" style="whiteSpace=wrap;html=1;aspect=fixed;fillColor=#0050ef;fontColor=#ffffff;strokeColor=#001DBC;" parent="1" vertex="1"><mxGeometry x="419" y="330" width="40" height="40" as="geometry"/></mxCell><mxCell id="122" value="9" style="whiteSpace=wrap;html=1;aspect=fixed;fillColor=#0050ef;fontColor=#ffffff;strokeColor=#001DBC;" parent="1" vertex="1"><mxGeometry x="469" y="330" width="40" height="40" as="geometry"/></mxCell><mxCell id="123" value="10" style="whiteSpace=wrap;html=1;aspect=fixed;fillColor=#0050ef;fontColor=#ffffff;strokeColor=#001DBC;" parent="1" vertex="1"><mxGeometry x="519" y="330" width="40" height="40" as="geometry"/></mxCell><mxCell id="124" value="11" style="whiteSpace=wrap;html=1;aspect=fixed;fillColor=#0050ef;fontColor=#ffffff;strokeColor=#001DBC;" parent="1" vertex="1"><mxGeometry x="569" y="330" width="40" height="40" as="geometry"/></mxCell><mxCell id="125" value="12" style="whiteSpace=wrap;html=1;aspect=fixed;fillColor=#008a00;fontColor=#ffffff;strokeColor=#005700;" parent="1" vertex="1"><mxGeometry x="619" y="330" width="40" height="40" as="geometry"/></mxCell><mxCell id="126" value="13" style="whiteSpace=wrap;html=1;aspect=fixed;fillColor=#008a00;fontColor=#ffffff;strokeColor=#005700;" parent="1" vertex="1"><mxGeometry x="669" y="330" width="40" height="40" as="geometry"/></mxCell><mxCell id="127" value="14" style="whiteSpace=wrap;html=1;aspect=fixed;fillColor=#008a00;fontColor=#ffffff;strokeColor=#005700;" parent="1" vertex="1"><mxGeometry x="719" y="330" width="40" height="40" as="geometry"/></mxCell><mxCell id="128" value="1" style="whiteSpace=wrap;html=1;aspect=fixed;fillColor=#008a00;fontColor=#ffffff;strokeColor=#005700;" parent="1" vertex="1"><mxGeometry x="69" y="330" width="40" height="40" as="geometry"/></mxCell><mxCell id="129" value="2" style="whiteSpace=wrap;html=1;aspect=fixed;fillColor=#008a00;fontColor=#ffffff;strokeColor=#005700;" parent="1" vertex="1"><mxGeometry x="119" y="330" width="40" height="40" as="geometry"/></mxCell><mxCell id="130" value="3" style="whiteSpace=wrap;html=1;aspect=fixed;fillColor=#008a00;fontColor=#ffffff;strokeColor=#005700;" parent="1" vertex="1"><mxGeometry x="169" y="330" width="40" height="40" as="geometry"/></mxCell><mxCell id="131" value="4" style="whiteSpace=wrap;html=1;aspect=fixed;fillColor=#0050ef;fontColor=#ffffff;strokeColor=#001DBC;" parent="1" vertex="1"><mxGeometry x="219" y="330" width="40" height="40" as="geometry"/></mxCell><mxCell id="132" value="5" style="whiteSpace=wrap;html=1;aspect=fixed;fillColor=#0050ef;fontColor=#ffffff;strokeColor=#001DBC;" parent="1" vertex="1"><mxGeometry x="269" y="330" width="40" height="40" as="geometry"/></mxCell><mxCell id="133" value="6" style="whiteSpace=wrap;html=1;aspect=fixed;fillColor=#0050ef;fontColor=#ffffff;strokeColor=#001DBC;" parent="1" vertex="1"><mxGeometry x="319" y="330" width="40" height="40" as="geometry"/></mxCell><mxCell id="134" value="7" style="whiteSpace=wrap;html=1;aspect=fixed;fillColor=#0050ef;fontColor=#ffffff;strokeColor=#001DBC;" parent="1" vertex="1"><mxGeometry x="369" y="330" width="40" height="40" as="geometry"/></mxCell><mxCell id="135" value="8" style="whiteSpace=wrap;html=1;aspect=fixed;fillColor=#a20025;fontColor=#ffffff;strokeColor=#6F0000;" parent="1" vertex="1"><mxGeometry x="420" y="385" width="40" height="40" as="geometry"/></mxCell><mxCell id="136" value="9" style="whiteSpace=wrap;html=1;aspect=fixed;fillColor=#a20025;fontColor=#ffffff;strokeColor=#6F0000;" parent="1" vertex="1"><mxGeometry x="470" y="385" width="40" height="40" as="geometry"/></mxCell><mxCell id="137" value="10" style="whiteSpace=wrap;html=1;aspect=fixed;fillColor=#0050ef;fontColor=#ffffff;strokeColor=#001DBC;" parent="1" vertex="1"><mxGeometry x="520" y="385" width="40" height="40" as="geometry"/></mxCell><mxCell id="138" value="11" style="whiteSpace=wrap;html=1;aspect=fixed;fillColor=#0050ef;fontColor=#ffffff;strokeColor=#001DBC;" parent="1" vertex="1"><mxGeometry x="570" y="385" width="40" height="40" as="geometry"/></mxCell><mxCell id="139" value="12" style="whiteSpace=wrap;html=1;aspect=fixed;fillColor=#008a00;fontColor=#ffffff;strokeColor=#005700;" parent="1" vertex="1"><mxGeometry x="620" y="385" width="40" height="40" as="geometry"/></mxCell><mxCell id="140" value="13" style="whiteSpace=wrap;html=1;aspect=fixed;fillColor=#008a00;fontColor=#ffffff;strokeColor=#005700;" parent="1" vertex="1"><mxGeometry x="670" y="385" width="40" height="40" as="geometry"/></mxCell><mxCell id="141" value="14" style="whiteSpace=wrap;html=1;aspect=fixed;fillColor=#008a00;fontColor=#ffffff;strokeColor=#005700;" parent="1" vertex="1"><mxGeometry x="720" y="385" width="40" height="40" as="geometry"/></mxCell><mxCell id="142" value="1" style="whiteSpace=wrap;html=1;aspect=fixed;fillColor=#008a00;fontColor=#ffffff;strokeColor=#005700;" parent="1" vertex="1"><mxGeometry x="70" y="385" width="40" height="40" as="geometry"/></mxCell><mxCell id="143" value="2" style="whiteSpace=wrap;html=1;aspect=fixed;fillColor=#008a00;fontColor=#ffffff;strokeColor=#005700;" parent="1" vertex="1"><mxGeometry x="120" y="385" width="40" height="40" as="geometry"/></mxCell><mxCell id="144" value="3" style="whiteSpace=wrap;html=1;aspect=fixed;fillColor=#008a00;fontColor=#ffffff;strokeColor=#005700;" parent="1" vertex="1"><mxGeometry x="170" y="385" width="40" height="40" as="geometry"/></mxCell><mxCell id="145" value="4" style="whiteSpace=wrap;html=1;aspect=fixed;fillColor=#0050ef;fontColor=#ffffff;strokeColor=#001DBC;" parent="1" vertex="1"><mxGeometry x="220" y="385" width="40" height="40" as="geometry"/></mxCell><mxCell id="146" value="5" style="whiteSpace=wrap;html=1;aspect=fixed;fillColor=#0050ef;fontColor=#ffffff;strokeColor=#001DBC;" parent="1" vertex="1"><mxGeometry x="270" y="385" width="40" height="40" as="geometry"/></mxCell><mxCell id="147" value="6" style="whiteSpace=wrap;html=1;aspect=fixed;fillColor=#a20025;fontColor=#ffffff;strokeColor=#6F0000;" parent="1" vertex="1"><mxGeometry x="320" y="385" width="40" height="40" as="geometry"/></mxCell><mxCell id="148" value="7" style="whiteSpace=wrap;html=1;aspect=fixed;fillColor=#a20025;fontColor=#ffffff;strokeColor=#6F0000;" parent="1" vertex="1"><mxGeometry x="370" y="385" width="40" height="40" as="geometry"/></mxCell><mxCell id="151" value="8" style="whiteSpace=wrap;html=1;aspect=fixed;fillColor=#d80073;fontColor=#ffffff;strokeColor=#A50040;" parent="1" vertex="1"><mxGeometry x="420" y="437.5" width="40" height="40" as="geometry"/></mxCell><mxCell id="152" value="9" style="whiteSpace=wrap;html=1;aspect=fixed;fillColor=#d80073;fontColor=#ffffff;strokeColor=#A50040;" parent="1" vertex="1"><mxGeometry x="470" y="437.5" width="40" height="40" as="geometry"/></mxCell><mxCell id="153" value="10" style="whiteSpace=wrap;html=1;aspect=fixed;fillColor=#d80073;fontColor=#ffffff;strokeColor=#A50040;" parent="1" vertex="1"><mxGeometry x="520" y="437.5" width="40" height="40" as="geometry"/></mxCell><mxCell id="154" value="11" style="whiteSpace=wrap;html=1;aspect=fixed;fillColor=#d80073;fontColor=#ffffff;strokeColor=#A50040;" parent="1" vertex="1"><mxGeometry x="570" y="437.5" width="40" height="40" as="geometry"/></mxCell><mxCell id="155" value="12" style="whiteSpace=wrap;html=1;aspect=fixed;fillColor=#d80073;fontColor=#ffffff;strokeColor=#A50040;" parent="1" vertex="1"><mxGeometry x="620" y="437.5" width="40" height="40" as="geometry"/></mxCell><mxCell id="156" value="13" style="whiteSpace=wrap;html=1;aspect=fixed;fillColor=#d80073;fontColor=#ffffff;strokeColor=#A50040;" parent="1" vertex="1"><mxGeometry x="670" y="437.5" width="40" height="40" as="geometry"/></mxCell><mxCell id="157" value="14" style="whiteSpace=wrap;html=1;aspect=fixed;fillColor=#d80073;fontColor=#ffffff;strokeColor=#A50040;" parent="1" vertex="1"><mxGeometry x="720" y="437.5" width="40" height="40" as="geometry"/></mxCell><mxCell id="158" value="1" style="whiteSpace=wrap;html=1;aspect=fixed;fillColor=#d80073;fontColor=#ffffff;strokeColor=#A50040;" parent="1" vertex="1"><mxGeometry x="70" y="437.5" width="40" height="40" as="geometry"/></mxCell><mxCell id="159" value="2" style="whiteSpace=wrap;html=1;aspect=fixed;fillColor=#d80073;fontColor=#ffffff;strokeColor=#A50040;" parent="1" vertex="1"><mxGeometry x="120" y="437.5" width="40" height="40" as="geometry"/></mxCell><mxCell id="160" value="3" style="whiteSpace=wrap;html=1;aspect=fixed;fillColor=#d80073;fontColor=#ffffff;strokeColor=#A50040;" parent="1" vertex="1"><mxGeometry x="170" y="437.5" width="40" height="40" as="geometry"/></mxCell><mxCell id="161" value="4" style="whiteSpace=wrap;html=1;aspect=fixed;fillColor=#d80073;fontColor=#ffffff;strokeColor=#A50040;" parent="1" vertex="1"><mxGeometry x="220" y="437.5" width="40" height="40" as="geometry"/></mxCell><mxCell id="162" value="5" style="whiteSpace=wrap;html=1;aspect=fixed;fillColor=#d80073;fontColor=#ffffff;strokeColor=#A50040;" parent="1" vertex="1"><mxGeometry x="270" y="437.5" width="40" height="40" as="geometry"/></mxCell><mxCell id="163" value="6" style="whiteSpace=wrap;html=1;aspect=fixed;fillColor=#d80073;fontColor=#ffffff;strokeColor=#A50040;" parent="1" vertex="1"><mxGeometry x="320" y="437.5" width="40" height="40" as="geometry"/></mxCell><mxCell id="164" value="7" style="whiteSpace=wrap;html=1;aspect=fixed;fillColor=#d80073;fontColor=#ffffff;strokeColor=#A50040;" parent="1" vertex="1"><mxGeometry x="370" y="437.5" width="40" height="40" as="geometry"/></mxCell><mxCell id="165" value="8" style="whiteSpace=wrap;html=1;aspect=fixed;fillColor=#d80073;fontColor=#ffffff;strokeColor=#A50040;" parent="1" vertex="1"><mxGeometry x="421" y="492.5" width="40" height="40" as="geometry"/></mxCell><mxCell id="166" value="9" style="whiteSpace=wrap;html=1;aspect=fixed;fillColor=#d80073;fontColor=#ffffff;strokeColor=#A50040;" parent="1" vertex="1"><mxGeometry x="471" y="492.5" width="40" height="40" as="geometry"/></mxCell><mxCell id="167" value="10" style="whiteSpace=wrap;html=1;aspect=fixed;fillColor=#d80073;fontColor=#ffffff;strokeColor=#A50040;" parent="1" vertex="1"><mxGeometry x="521" y="492.5" width="40" height="40" as="geometry"/></mxCell><mxCell id="168" value="11" style="whiteSpace=wrap;html=1;aspect=fixed;fillColor=#d80073;fontColor=#ffffff;strokeColor=#A50040;" parent="1" vertex="1"><mxGeometry x="571" y="492.5" width="40" height="40" as="geometry"/></mxCell><mxCell id="169" value="12" style="whiteSpace=wrap;html=1;aspect=fixed;fillColor=#d80073;fontColor=#ffffff;strokeColor=#A50040;" parent="1" vertex="1"><mxGeometry x="621" y="492.5" width="40" height="40" as="geometry"/></mxCell><mxCell id="170" value="13" style="whiteSpace=wrap;html=1;aspect=fixed;fillColor=#d80073;fontColor=#ffffff;strokeColor=#A50040;" parent="1" vertex="1"><mxGeometry x="671" y="492.5" width="40" height="40" as="geometry"/></mxCell><mxCell id="171" value="14" style="whiteSpace=wrap;html=1;aspect=fixed;fillColor=#d80073;fontColor=#ffffff;strokeColor=#A50040;" parent="1" vertex="1"><mxGeometry x="721" y="492.5" width="40" height="40" as="geometry"/></mxCell><mxCell id="172" value="1" style="whiteSpace=wrap;html=1;aspect=fixed;fillColor=#d80073;fontColor=#ffffff;strokeColor=#A50040;" parent="1" vertex="1"><mxGeometry x="71" y="492.5" width="40" height="40" as="geometry"/></mxCell><mxCell id="173" value="2" style="whiteSpace=wrap;html=1;aspect=fixed;fillColor=#d80073;fontColor=#ffffff;strokeColor=#A50040;" parent="1" vertex="1"><mxGeometry x="121" y="492.5" width="40" height="40" as="geometry"/></mxCell><mxCell id="174" value="3" style="whiteSpace=wrap;html=1;aspect=fixed;fillColor=#d80073;fontColor=#ffffff;strokeColor=#A50040;" parent="1" vertex="1"><mxGeometry x="171" y="492.5" width="40" height="40" as="geometry"/></mxCell><mxCell id="175" value="4" style="whiteSpace=wrap;html=1;aspect=fixed;fillColor=#d80073;fontColor=#ffffff;strokeColor=#A50040;" parent="1" vertex="1"><mxGeometry x="221" y="492.5" width="40" height="40" as="geometry"/></mxCell><mxCell id="176" value="5" style="whiteSpace=wrap;html=1;aspect=fixed;fillColor=#d80073;fontColor=#ffffff;strokeColor=#A50040;" parent="1" vertex="1"><mxGeometry x="271" y="492.5" width="40" height="40" as="geometry"/></mxCell><mxCell id="177" value="6" style="whiteSpace=wrap;html=1;aspect=fixed;fillColor=#d80073;fontColor=#ffffff;strokeColor=#A50040;" parent="1" vertex="1"><mxGeometry x="321" y="492.5" width="40" height="40" as="geometry"/></mxCell><mxCell id="178" value="7" style="whiteSpace=wrap;html=1;aspect=fixed;fillColor=#d80073;fontColor=#ffffff;strokeColor=#A50040;" parent="1" vertex="1"><mxGeometry x="371" y="492.5" width="40" height="40" as="geometry"/></mxCell></root></mxGraphModel></diagram></mxfile>